<svg xmlns="http://www.w3.org/2000/svg" viewBox="0 0 36 24"><defs><linearGradient x1="0%" y1="0%" x2="100%" y2="100%" id="A"><stop stop-color="#ff4244" offset="0%"/><stop stop-color="#ff8e3c" offset="100%"/></linearGradient></defs><path d="M34.614 9.421a4.452 4.452 0 0 1 1.057 4.77l-2.347 6.376c-.616 1.674-2.02 2.969-3.755 3.307a4.882 4.882 0 0 1-4.732-1.69L10.763 5.322a.31.31 0 0 0-.528.093L5.656 17.8c-.095.256.157.504.407.402l5.619-2.295a2.481 2.481 0 0 1 3.296 1.546c.415 1.273-.283 2.648-1.512 3.15L6.126 23.6c-1.359.555-2.92.457-4.144-.36a4.461 4.461 0 0 1-1.704-5.26l5.41-14.628C6.329 1.618 7.789.394 9.594.078a5.025 5.025 0 0 1 4.768 1.755l8.078 9.68 7.43-3.035c1.651-.674 3.469-.313 4.744.943zm-4.285 4.862c.094-.256-.158-.504-.408-.401l-4.105 1.676 2.462 2.951a.31.31 0 0 0 .53-.093l1.52-4.133z" fill="url(#A)"/></svg>
